<svg xmlns="http://www.w3.org/2000/svg" viewBox="0 0 1024 1024">
  <defs>
    <linearGradient id="bg" x1="160" y1="96" x2="864" y2="928" gradientUnits="userSpaceOnUse">
      <stop offset="0" stop-color="#1f9dff"/>
      <stop offset="0.48" stop-color="#16b8a6"/>
      <stop offset="1" stop-color="#2f7dff"/>
    </linearGradient>
    <linearGradient id="link" x1="250" y1="300" x2="780" y2="730" gradientUnits="userSpaceOnUse">
      <stop offset="0" stop-color="#ffffff"/>
      <stop offset="1" stop-color="#d7f7ff"/>
    </linearGradient>
    <filter id="shadow" x="-20%" y="-20%" width="140%" height="140%">
      <feDropShadow dx="0" dy="28" stdDeviation="38" flood-color="#0b2340" flood-opacity="0.28"/>
    </filter>
    <filter id="soft" x="-20%" y="-20%" width="140%" height="140%">
      <feDropShadow dx="0" dy="10" stdDeviation="16" flood-color="#06304a" flood-opacity="0.22"/>
    </filter>
  </defs>

  <rect x="88" y="88" width="848" height="848" rx="218" fill="url(#bg)" filter="url(#shadow)"/>
  <path d="M196 680c126 74 241 108 347 100 104-8 199-58 286-152" fill="none" stroke="#ffffff" stroke-width="42" stroke-linecap="round" opacity="0.18"/>
  <path d="M207 350c98-72 198-108 300-108 107 0 210 39 310 118" fill="none" stroke="#ffffff" stroke-width="34" stroke-linecap="round" opacity="0.14"/>

  <g filter="url(#soft)">
    <path d="M324 342l204 118 172-96" fill="none" stroke="url(#link)" stroke-width="58" stroke-linecap="round" stroke-linejoin="round"/>
    <path d="M322 682l206-122 173 104" fill="none" stroke="url(#link)" stroke-width="58" stroke-linecap="round" stroke-linejoin="round"/>
    <path d="M528 460v100" fill="none" stroke="#e8fbff" stroke-width="58" stroke-linecap="round"/>

    <circle cx="324" cy="342" r="78" fill="#ffffff"/>
    <circle cx="324" cy="342" r="38" fill="#1687ff"/>
    <circle cx="528" cy="510" r="86" fill="#ffffff"/>
    <circle cx="528" cy="510" r="42" fill="#12aa9b"/>
    <circle cx="700" cy="364" r="72" fill="#ffffff"/>
    <circle cx="700" cy="364" r="34" fill="#257dff"/>
    <circle cx="322" cy="682" r="72" fill="#ffffff"/>
    <circle cx="322" cy="682" r="34" fill="#257dff"/>
    <circle cx="701" cy="664" r="78" fill="#ffffff"/>
    <circle cx="701" cy="664" r="38" fill="#1687ff"/>
  </g>

  <path d="M508 294c-88 3-172 35-252 96" fill="none" stroke="#ffffff" stroke-width="22" stroke-linecap="round" opacity="0.22"/>
  <path d="M760 598c-63 67-136 107-219 119" fill="none" stroke="#ffffff" stroke-width="22" stroke-linecap="round" opacity="0.20"/>
</svg>
